<svg xmlns="http://www.w3.org/2000/svg" width="256" height="256"><path fill-opacity=".016" d="M0 128.004v128.004l128.25-.254 128.25-.254.254-127.75L257.008 0H0v128.004m.485.496c0 70.4.119 99.053.265 63.672.146-35.38.146-92.98 0-128C.604 29.153.485 58.1.485 128.5" fill="#1976D2" fill-rule="evenodd"/><path fill-opacity=".095" d="M128.227 62.25c-33.645 33.581-41.253 41.662-40.923 43.467l.406 2.216-24.281.284-24.281.283-.589-2.952c-.324-1.623-1.561-3.986-2.749-5.25C33.752 98.107 32.98 98 19.28 98c-13.925 0-14.447.076-16.825 2.455L0 102.909v96.245l2.923 2.923c2.92 2.92 2.938 2.923 15.453 2.923 7.585 0 13.565-.472 15.152-1.195 3.719-1.694 5.472-5.77 5.472-12.724 0-5.308.206-5.943 1.75-5.379 6.024 2.199 11.814 10.126 16.807 23.011 5.4 13.937 10.67 19.031 23.943 23.14 4.273 1.323 15.573 1.598 77.734 1.89 50.167.236 73.985.006 76.764-.742 12.797-3.446 18.091-19.477 9.521-28.829l-3.329-3.632 3.134-1.02c5.526-1.799 6.3-10.367 1.148-12.715L244 185.679v-37.54c0-29.197.267-37.272 1.2-36.339 1.964 1.964 4.248 1.385 7.363-1.866l2.937-3.067.515 45.817.515 45.816.235-48.309c.129-26.57-.13-48.083-.577-47.807-.446.276-19.232-17.923-41.745-40.441C188.141 35.635 172.803 21 171.533 21c-1.269 0-16.775 14.77-43.306 41.25M.463 151c0 26.675.129 37.588.286 24.25.158-13.338.158-35.162 0-48.5C.592 113.412.463 124.325.463 151" fill="#1976D2" fill-rule="evenodd"/><path fill-opacity=".146" d="M128.324 62.212C105.596 84.878 87 104.138 87 105.012c0 .873.54 2.128 1.2 2.788.933.933-4.511 1.2-24.5 1.2H38v-3.045c0-1.901-.923-3.969-2.455-5.5C33.182 98.091 32.59 98 19.601 98c-12.817 0-13.629.12-16.295 2.413L.5 102.826l-.287 46.337c-.158 25.485-.034 47.361.275 48.612.31 1.252 1.451 3.164 2.537 4.25C4.808 203.808 6.395 204 19.326 204c13.681 0 14.423-.104 16.5-2.314 1.816-1.933 2.174-3.499 2.174-9.5 0-6.546.18-7.186 2.022-7.186 2.84 0 10.127 7.015 13.206 12.712 1.423 2.633 3.989 8.442 5.702 12.908 4.872 12.7 11.131 17.907 25.431 21.156 6.25 1.42 16.075 1.609 78.865 1.523 71.726-.098 71.727-.098 76.265-2.294 5.858-2.836 9.509-8.742 9.509-15.383 0-5.314-2.81-11.675-6.209-14.056L240.555 200h2.268c2.845 0 7.177-4.225 7.177-7 0-3.41-4.607-7.285-8.059-6.778-2.327.342-2.941.055-2.941-1.372 0-.992-1.125-2.541-2.5-3.442-2.24-1.468-2.739-1.482-4.793-.135-1.982 1.298-2.556 1.311-4.222.093-1.06-.776-2.498-1.191-3.196-.923-.698.267-2.378-.623-3.733-1.978-3.173-3.173-6.971-3.141-10.198.086-1.403 1.403-3.07 2.364-3.705 2.135-.634-.229-1.978.009-2.986.529-1.311.675-2.331.495-3.579-.635-.96-.869-2.948-1.58-4.417-1.58H193v-21.066c0-12.609-.416-21.842-1.035-23-.969-1.81-2.278-1.934-20.378-1.934-14.413 0-19.611.324-20.396 1.27-.579.698-1.197 3.23-1.372 5.626l-.319 4.356-15-14.265c-17.185-16.343-21.875-19.703-28.781-20.619l-4.924-.653 35.341-35.351 35.341-35.352 37.542 37.494C229.667 96.128 247.288 113 248.177 113c.889 0 3.008-1.585 4.709-3.523l3.094-3.524.27 45.774.271 45.773.237-46.5.237-46.5-41.764-41.75C189.379 36.907 172.739 21 171.557 21c-1.18 0-17.697 15.745-43.233 41.212m24.654 5.144c-.274.274-2.304.666-4.511.872-2.208.205-4.537.697-5.177 1.093-1.675 1.035-4.29 6.615-4.29 9.154 0 4.267 3.353 11.886 7.888 17.925 2.537 3.377 5.27 7.405 6.073 8.949 1.756 3.376 11.036 12.987 11.801 12.223.297-.298 1.035.07 1.639.816 1.584 1.955 7.986 3.95 8.428 2.626.192-.578.984-1.685 1.76-2.46.776-.776 1.411-2.092 1.411-2.924 0-.831.45-1.79 1-2.13.55-.34 1-1.394 1-2.343 0-.949 2.475-4.17 5.5-7.157s5.5-5.04 5.5-4.561c0 1.593 3.98-2.702 7.706-8.316 3.398-5.118 3.683-6.115 3.736-13.059.057-7.385.005-7.545-2.942-8.983-1.65-.805-5.265-1.603-8.034-1.772-4.336-.266-5.787.177-10.466 3.191-6.294 4.055-7.172 4.175-11.412 1.555-1.731-1.071-5.159-2.452-7.618-3.069-2.458-.618-5.375-1.35-6.482-1.626-1.107-.276-2.237-.278-2.51-.004M.462 151.5c-.001 25.85.129 36.568.287 23.819.158-12.75.158-33.9 0-47C.591 115.218.462 125.65.462 151.5m178.15-44.031c-.912 1.392-1.306 2.531-.876 2.531.974 0 3.562-4.035 2.969-4.629-.239-.238-1.18.706-2.093 2.098m9.388 5.948c0 .87.713 1.583 1.583 1.583.871 0 1.406-.534 1.188-1.187-.618-1.855-2.771-2.162-2.771-.396M173 119c0 .55.477 1 1.059 1s.781-.45.441-1-.816-1-1.059-1-.441.45-.441 1m7.98 3.524c-.696.838-.975 1.814-.621 2.168.779.779 5.641-1.687 5.641-2.861 0-1.421-3.688-.911-5.02.693M112.498 164c1.878 3.345 6.927 10.639 8.825 12.749 1.841 2.046 2.177 2.109 3.736.698 1.593-1.442 1.356-1.877-3.423-6.259-7.5-6.877-10.12-8.938-9.138-7.188" fill="#1976D2" fill-rule="evenodd"/><path fill-opacity=".474" d="M165.302 25.899C158.273 31.833 87 103.24 87 104.348c0 .431.466 1.654 1.035 2.718.821 1.533 2.118 1.934 6.255 1.934h5.221L135 73.5C154.519 53.975 170.944 38 171.5 38c.555 0 17.656 16.65 38 37s37.695 37 38.558 37c1.94 0 6.942-5.086 6.942-7.059C255 103.535 173.191 21 171.797 21c-.381 0-3.304 2.204-6.495 4.899M181.5 71c-5.468 3.243-9.64 3.707-13.5 1.5-4.79-2.738-5.227-1.472-.879 2.544l4.379 4.044-4.827-3.544c-5.975-4.387-9.305-5.341-11.385-3.26-1.761 1.76-.982 9.263.844 8.134.585-.361.946.167.834 1.223-.108 1.022-.144 2.325-.081 2.895.127 1.147 8.041 10.318 8.087 9.371.015-.327-.853-3.154-1.929-6.283-1.077-3.129-1.606-5.472-1.177-5.207.429.266 1.382 2.305 2.117 4.533 1.499 4.54 3.407 5.566 2.417 1.3-.594-2.565-.539-2.623.817-.865 1.512 1.961 1.261 6.172-.501 8.398-1.215 1.535-3.896-.67-9.804-8.064-3.117-3.902-3.945-5.888-4.499-10.789-.629-5.556-2.1-7.368-3.23-3.978-.264.791.014 1.044.687.628.724-.447 1.13.192 1.13 1.778 0 1.361-.533 2.653-1.184 2.87-.858.286-.691 1.616.61 4.833.986 2.442 2.046 5.075 2.354 5.853.382.965.149 1.16-.733.615-.711-.439-2.544-3.551-4.074-6.914l-2.78-6.115.401 5.692c.221 3.131-.021 5.954-.537 6.273-1.813 1.12 4.097 10.122 12.753 19.425 8.473 9.105 8.882 9.397 13.477 9.634 2.606.134 4.953-.103 5.215-.527.262-.424-.306-.709-1.263-.634-.956.075-1.626-.425-1.489-1.113.14-.7-.739-1.257-2-1.265-1.803-.013-1.953-.203-.755-.961 1.283-.811 1.212-1.159-.5-2.453-1.503-1.135-1.625-1.519-.495-1.555 1.313-.041 1.317-.163.029-.977-.809-.512-1.149-1.252-.756-1.645s1.54.032 2.55.945c2.384 2.158 3.177 2.097 3.177-.245 0-1.386.523-1.77 1.914-1.406 1.274.333 2.303-.226 3.076-1.669.639-1.194 1.915-2.934 2.836-3.866.921-.933 2.496-2.812 3.5-4.175l1.826-2.478-1.576 2.715c-2.292 3.948-1.943 4.457 1.174 1.709l2.75-2.424-2.395 2.719c-1.318 1.496-2.893 2.436-3.5 2.09-.608-.346-.763-.253-.346.206.418.46-.223 1.883-1.424 3.161-1.201 1.278-1.751 2.324-1.222 2.324C182.765 106 192 96.778 192 95.627c0-.442 2.025-3.119 4.5-5.948 3.827-4.375 4.5-5.783 4.5-9.412 0-2.347-.45-4.267-1-4.267-1.391 0-1.257-3.723.165-4.602 1.278-.79-7.097-3.293-11.165-3.337-1.375-.015-4.75 1.308-7.5 2.939M147 70c-.901.582-1.025.975-.309.985.655.008 1.469-.435 1.809-.985.767-1.242.421-1.242-1.5 0m-.921 4.583c.048 1.165.285 1.402.604.605.289-.722.253-1.585-.079-1.917-.332-.332-.568.258-.525 1.312m31.95 1.378c-.809.512-1.211 1.191-.893 1.509.319.318 1.148-.108 1.844-.946 1.443-1.738 1.166-1.902-.951-.563m-1.269 5.789c-3.531 3.714-9.132 13.83-11.288 20.388-.97 2.949-1.971 5.925-2.225 6.612-.253.688.011 1.25.588 1.25s2.063-3.147 3.302-6.994c1.239-3.846 2.552-6.509 2.919-5.916.422.683.895.479 1.293-.558.367-.956.217-1.382-.36-1.025-.544.336-.989.283-.989-.117 0-1.302 6.169-11.828 8.287-14.14 2.961-3.231 1.595-2.784-1.527.5m14.864.789c-.343.893-.595 2.15-.561 2.793.035.642.495.09 1.022-1.227.527-1.318.779-2.574.56-2.793-.219-.219-.679.333-1.021 1.227m5.55 7.593C195.895 91.709 195.28 93 195.809 93c.979 0 4.622-4.942 4.021-5.455-.182-.155-1.377 1.009-2.656 2.587M189 114c0 .55.45 1 1 1s1-.45 1-1-.45-1-1-1-1 .45-1 1m-18.5 6c-.34.55-.141 1 .441 1s1.059-.45 1.059-1-.198-1-.441-1-.719.45-1.059 1m-17.75 14.08c-1.282.747-1.75 2.303-1.75 5.817 0 4.545.303 5.085 5.75 10.229 3.162 2.987 10.332 9.376 15.933 14.198C182.802 173.038 187 178.752 187 183.816c0 3.045 1.191 2.714 3.25-.903 1.523-2.676 1.75-5.979 1.75-25.459 0-21.107-.11-22.443-1.934-23.419-2.527-1.352-34.984-1.313-37.316.045" fill="#1976D2" fill-rule="evenodd"/></svg>