<svg xmlns="http://www.w3.org/2000/svg" width="256" height="256"><path fill-opacity=".016" d="M0 128.004v128.004l128.25-.254 128.25-.254.254-127.75L257.008 0H0v128.004m.485.496c0 70.4.119 99.053.265 63.672.146-35.38.146-92.98 0-128C.604 29.153.485 58.1.485 128.5" fill="#1976D2" fill-rule="evenodd"/><path fill-opacity=".179" d="M19.5 78.885c-7.128 3.282-9.916 12.774-5.427 18.48L16.145 100H13.22c-3.913 0-9.3 3.741-11.548 8.02-1.617 3.078-1.76 5.149-1.238 17.914C1.084 141.834 1.89 144 7.155 144H10v28.822l3.077 2.589c3.374 2.839 7.521 3.335 10.384 1.241 1.552-1.135 2.3-1.119 4.743.1 2.407 1.2 3.425 1.23 5.972.175 5.162-2.138 5.824-5.358 5.824-28.308v-20.445l2.93 1.105c2.146.811 3.585.807 5.382-.011 2.421-1.104 2.459-1.046 2.917 4.476.374 4.519.985 6.043 3.173 7.925 1.49 1.282 3.584 2.331 4.654 2.331 1.836 0 1.944.806 1.944 14.545 0 14.11.073 14.619 2.455 17 2.611 2.612 7.205 3.243 10.554 1.45 1.287-.688 2.657-.648 4.36.127 3.033 1.382 7.012.497 9.656-2.147C89.81 173.19 90 171.604 90 158.5c0-13.484.131-14.5 1.865-14.5 1.026 0 3.051-.933 4.5-2.073 2.614-2.055 2.635-2.181 2.635-15.549 0-9.877-.391-14.234-1.464-16.309-1.818-3.514-6.893-7.87-10.113-8.678-2.872-.721-2.881-.763-.805-3.93 2.459-3.754 1.977-9.992-1.083-14.005-4.844-6.35-14.734-6.574-19.886-.451-3.574 4.248-4.132 8.061-1.921 13.132l1.86 4.264-4.789 2.386c-2.634 1.313-5.542 3.663-6.464 5.223-.921 1.56-2.585 3.242-3.697 3.738-1.714.765-2.489.205-5.08-3.673-1.803-2.697-4.704-5.396-7.067-6.575l-4.01-2 1.812-3.5c3.504-6.769.449-14.45-7.011-17.629-4.119-1.755-4.948-1.711-9.782.514m1.362 6.133c-3.497 2.041-3.102 7.885.796 11.783.738.738 1.342 2.644 1.342 4.235 0 3.339-2.291 4.964-7 4.964-3.494 0-6.881 1.52-8.718 3.913-.823 1.072-1.229 6.215-1.25 15.837C6.001 139.344 6.092 140 8 140c1.755 0 2.014-.705 2.115-5.75.064-3.162.22-6.2.348-6.75.128-.55.301-2.687.385-4.75.158-3.896 2.606-5.337 3.797-2.234.32.834.868 12.646 1.218 26.25L16.5 171.5H19c2.497 0 2.501-.013 3.363-13.25.754-11.585 1.081-13.25 2.6-13.25 1.476 0 1.835 1.377 2.387 9.154.358 5.034.65 11.083.65 13.441 0 4.901 1.037 5.991 4.128 4.337 2.122-1.136 2.157-1.498 1.605-16.797-.31-8.599-.265-20.585.101-26.635.613-10.129.831-11.024 2.747-11.297 1.481-.212 2.891.87 4.886 3.75 1.543 2.226 3.607 4.047 4.587 4.047 3.836 0 4.946-1.148 4.946-5.115 0-3.679-.118-3.83-2.055-2.643-1.734 1.061-2.208.991-3.024-.445-3.378-5.943-7.699-10.316-10.464-10.587-8.395-.825-10.9-4.342-6.67-9.368 3.202-3.806 3.553-9.389.722-11.459-2.172-1.589-6.257-1.761-8.647-.365m49.793 1.811c-2.476 2.735-2.087 7.417.845 10.171 1.375 1.292 2.5 3.37 2.5 4.618 0 2.718-3.464 5.382-7 5.382-3.284 0-6.614 2.354-8.506 6.011-1.817 3.513-2.151 24.465-.407 25.543 2.005 1.239 2.9-1.093 3.493-9.099.758-10.241 1.007-11.043 2.932-9.445 1.187.985 1.512 4.294 1.605 16.362.065 8.321.403 19.628.75 25.128.576 9.092.813 10 2.616 10 2.373 0 3.364-4.28 3.473-15 .085-8.337.804-11.5 2.615-11.5 1.665 0 2.282 3.728 2.733 16.5.347 9.816.397 10 2.774 10H83.5l1-25c.55-13.75 1.369-25.57 1.819-26.266 1.704-2.635 2.681.147 2.681 7.634 0 7.878 1.535 12.156 3.848 10.726 1.708-1.055 1.516-20.787-.242-24.995C90.945 109.625 87.522 107 84 107c-3.425 0-7-2.636-7-5.162 0-1.127 1.125-3.386 2.5-5.02 2.872-3.414 3.168-6.42.943-9.595-1.962-2.802-7.41-3.022-9.788-.394M144 127.5c0 8.667.262 10.5 1.5 10.5 1.147 0 1.5-1.264 1.5-5.378 0-5.719 1.477-8.058 4.702-7.446 1.417.269 1.904 1.593 2.298 6.255.722 8.543 3 8.713 3 .224 0-8.624-2.689-11.497-8.066-8.62-1.743.933-1.934.685-1.934-2.5 0-2.476-.45-3.535-1.5-3.535-1.238 0-1.5 1.833-1.5 10.5m16.229-9.312c.618 1.854 2.771 2.161 2.771.395 0-.87-.713-1.583-1.583-1.583-.871 0-1.406.534-1.188 1.188m6.771 8.843c0 10.555.689 12.079 4.75 10.505 1.667-.647 1.667-.74 0-1.968-1.432-1.054-1.75-2.858-1.75-9.928 0-7.013-.282-8.64-1.5-8.64-1.234 0-1.5 1.781-1.5 10.031m70-8.448c0 1.766 2.153 1.459 2.771-.395.218-.654-.317-1.188-1.188-1.188-.87 0-1.583.713-1.583 1.583m-110 14.5c0 8.428.3 10.981 1.25 10.657.694-.237 1.25-2.052 1.25-4.084 0-3.594.78-4.63 2-2.656.91 1.472 4.746 1.217 7.163-.477 6.976-4.886.493-17.193-7.208-13.684-1.505.685-2.455.74-2.455.14a.992.992 0 00-1-.979c-.607 0-1 4.361-1 11.083m33.417-9.728c-1.003 2.614.049 13.975 1.333 14.399.931.307 1.25-1.651 1.25-7.671 0-4.886-.408-8.083-1.031-8.083-.568 0-1.266.61-1.552 1.355m16.742.246c-3.458 2.422-4.405 5.874-2.718 9.911 2.409 5.766 10.182 6.052 13.062.482 1.921-3.715 1.098-7.376-2.25-10.01-3.055-2.402-5.074-2.498-8.094-.383m12.624-1.051c-.383.383.462 2.216 1.879 4.073l2.575 3.377-2.618 3.433c-2.948 3.865-3.159 4.568-1.369 4.564.688-.001 2.15-1.37 3.25-3.041l2-3.039 2.729 3.229c3.333 3.942 4.989 2.993 1.95-1.118-2.686-3.632-2.692-4.106-.099-7.403 3.089-3.926 1.794-5.589-1.486-1.908l-2.774 3.114-2.67-2.989c-1.469-1.644-2.984-2.675-3.367-2.292m17.217.74c-3.515 1.771-4.917 7.662-2.647 11.126 2.685 4.098 10.871 4.77 12.313 1.011.921-2.398-.156-2.627-3.454-.734-2.937 1.686-3.142 1.681-5.135-.124-3.238-2.93-2.535-3.569 3.923-3.569 5.685 0 6-.127 6-2.427 0-2.618-4.163-6.583-6.885-6.558-.888.008-2.74.582-4.115 1.275m13.548-.185c-1.109 2.735-.168 14.197 1.202 14.649.889.293 1.25-1.036 1.25-4.599 0-5.339 1.715-8.155 4.964-8.155 2.322 0 3.036 1.921 3.036 8.165 0 6.42 2.369 6.162 2.797-.304.565-8.526-2.717-12.591-7.807-9.67-2.42 1.389-2.774 1.382-3.733-.078-.971-1.479-1.113-1.48-1.709-.008m17.135-.455c-.375.376-.683 4.021-.683 8.1 0 5.487.325 7.309 1.25 7.004.796-.263 1.359-2.893 1.549-7.235.28-6.392-.54-9.444-2.116-7.869m7.567.381c-1.238.498-2.25 1.369-2.25 1.937 0 1.303.335 1.292 3.423-.115 1.943-.885 2.867-.857 4.047.122 2.484 2.062 1.844 3.725-1.258 3.269-1.753-.257-3.663.301-5.15 1.505-4.948 4.006.409 10.18 6.446 7.429 1.714-.781 2.462-.767 2.735.051.206.619.818.851 1.359.517.582-.359.743-3.142.394-6.793-.779-8.146-3.562-10.408-9.746-7.922m-37.389 2.883c-3.108 2.52-2.126 3.271 3.782 2.895l4.857-.309-2.25-2.25c-2.74-2.74-3.382-2.774-6.389-.336m-77.463.491c-.296.772-.395 2.91-.218 4.75.283 2.962.692 3.381 3.563 3.658 2.664.257 3.451-.145 4.41-2.25 1.786-3.919-.22-7.563-4.163-7.563-1.699 0-3.292.623-3.592 1.405m46.42 1.095c-1.755 3.852.279 7.5 4.182 7.5 2.275 0 3.33-.631 4.182-2.5 1.755-3.852-.279-7.5-4.182-7.5-2.275 0-3.33.631-4.182 2.5m69.432 3.162c-1.707.689-1.583 4.273.172 4.946 1.865.716 5.578-1.305 5.578-3.036 0-2.018-3.007-3.017-5.75-1.91" fill="#1976D2" fill-rule="evenodd"/><path fill-opacity=".437" d="M17.615 80.088c-5.63 4.429-7.065 11.022-3.626 16.662l1.982 3.25h-2.338c-2.888 0-8.251 3.558-11.041 7.325-1.939 2.617-2.069 3.9-1.774 17.5.287 13.299.515 14.886 2.424 16.925 1.159 1.238 3.12 2.25 4.359 2.25 2.218 0 2.256.219 2.575 14.589.324 14.576.326 14.591 3.13 17 3.159 2.715 7.254 3.108 10.284.986 1.326-.929 2.535-1.108 3.472-.515 2.55 1.613 6.756 1 9.535-1.389l2.708-2.33.485-22.679c.407-19.056.704-22.497 1.856-21.541.805.668 3.224.928 5.862.631l4.492-.506v5.154c0 6.595 1.986 9.6 6.344 9.6h3.23l-.404 12.965c-.223 7.131-.121 14.094.225 15.472 1.423 5.67 8.535 8.445 12.992 5.071 1.638-1.24 2.163-1.236 3.973.031 3.134 2.196 5.472 1.783 8.81-1.555l3.017-3.017-.344-14.484-.343-14.484h2.75C93.763 143 95.9 142.1 97 141c1.793-1.793 1.998-3.321 1.984-14.75-.021-15.655-1.48-19.226-9.526-23.308l-5.041-2.559 1.844-2.941C90.954 89.96 84.807 79 75.919 79c-8.177 0-13.707 6.09-12.655 13.935.312 2.321 1.311 5.043 2.221 6.048 1.564 1.728 1.48 1.866-1.545 2.53-1.939.426-5.324 2.827-8.591 6.095-2.966 2.966-5.824 5.392-6.35 5.392-.527 0-1.886-1.818-3.019-4.039-2.213-4.339-7.085-7.951-10.73-7.957-2.778-.005-2.788-.357-.114-3.975 2.399-3.244 2.841-9.335.937-12.893-3.106-5.804-13.366-8.053-18.458-4.048m3.02 4.985c-3.399 2.673-3.451 6.804-.135 10.745 4.125 4.902 2.851 9.182-2.732 9.182-1.558 0-4.409.659-6.336 1.464C6.225 108.64 5 112.537 5 126.933c0 10.641.209 12.108 1.847 12.985C10.075 141.646 11 139.28 11 129.3c0-7.547.279-9.3 1.481-9.3 2.225 0 2.515 2.467 3.298 28l.721 23.5H19c2.245 0 2.568-.51 3.162-5 .365-2.75.702-8.461.75-12.691.081-7.046 1.14-10.084 2.905-8.33.375.374.908 6.606 1.183 13.85l.5 13.171h6l.266-27.288c.307-31.475.398-31.757 7.677-23.829 4.303 4.686 5.79 5.06 9.307 2.339 1.215-.94 1.816-7.722.684-7.722-.311 0-1.425.46-2.475 1.022-1.646.881-2.402.28-5.484-4.362-3.747-5.644-6.728-7.66-11.322-7.66-5.466 0-6.933-4.979-2.653-9 3.458-3.249 3.398-8.149-.135-10.927C27.916 83.933 25.952 83 25 83c-.952 0-2.916.933-4.365 2.073m51.729.097C70.429 86.107 68 89.858 68 91.91c0 .448 1.358 2.523 3.017 4.611 2.133 2.684 2.826 4.41 2.365 5.888-.826 2.65-1.773 3.238-6.411 3.98-2.547.407-4.706 1.684-6.715 3.972-2.815 3.207-2.986 3.926-3.498 14.711-.295 6.237-.305 11.946-.02 12.687.284.741 1.472 1.21 2.639 1.044 1.938-.277 2.167-1.08 2.623-9.224.329-5.871.927-9.061 1.75-9.333.688-.227 1.262.187 1.276.921.499 25.681 1.168 46.838 1.537 48.583.337 1.595 1.191 2.25 2.937 2.25 2.997 0 3.258-1.008 3.787-14.587.216-5.547.741-10.649 1.166-11.337 1.788-2.893 2.874 1.451 3.331 13.32.491 12.746 1.069 14.365 4.639 12.995 2.262-.868 2.456-2.33 2.595-19.575.175-21.821.993-32.978 2.382-32.52.638.21 1.31 4.11 1.6 9.283.466 8.313.653 8.943 2.75 9.241 2.231.316 2.25.213 2.25-12.265v-12.584l-3.25-3.52c-2.312-2.504-4.405-3.69-7.25-4.107-3.935-.577-6.5-2.534-6.5-4.958 0-.678 1.125-2.57 2.5-4.204 3.36-3.993 3.307-8.402-.135-11.109-2.918-2.296-3.871-2.419-7.001-.903M145 127.559c0 6.785.357 10.338 1 9.941.55-.34 1-2.772 1-5.404 0-3.367.542-5.277 1.829-6.441 2.256-2.042 2.634-2.049 4.6-.084 1.003 1.004 1.571 3.353 1.571 6.5 0 2.711.45 4.929 1 4.929s1-2.475 1-5.5c0-8.095-3.688-11.139-8.75-7.222-.954.738-1.25-.008-1.25-3.156 0-2.267-.45-4.122-1-4.122-.604 0-1 4.186-1 10.559m16-9.059c0 .825.45 1.5 1 1.5s1-.675 1-1.5-.45-1.5-1-1.5-1 .675-1 1.5m6 7.878c0 9.912.998 12.327 4.534 10.971 1.622-.623 1.587-.76-.374-1.485-1.995-.739-2.16-1.489-2.16-9.832 0-5.355-.407-9.032-1-9.032-.596 0-1 3.793-1 9.378m70-7.878c0 .825.45 1.5 1 1.5s1-.675 1-1.5-.45-1.5-1-1.5-1 .675-1 1.5m-58.685 4.516c-4.914 1.959-5.906 9.587-1.68 12.911 3.46 2.722 5.912 2.617 8.91-.382 5.718-5.717.101-15.451-7.23-12.529m30.145.01c-2.64.976-4.138 2.842-4.982 6.204-.552 2.201-.106 3.296 2.343 5.745 3.554 3.554 6.07 3.808 9.318.941 2.051-1.81 2.099-1.99.361-1.371-5.829 2.076-9.5 1.238-9.5-2.167 0-1.017 1.57-1.378 6-1.378 4.779 0 6-.319 6-1.566 0-4.341-5.373-7.95-9.54-6.408m36.949.554c-2.864 1.29-2.845 1.302 1.246.753 3.491-.469 4.329-.231 5.25 1.489 1.611 3.01 1.461 3.178-2.834 3.178-3.705 0-7.071 1.938-7.071 4.071 0 .511.942 1.871 2.092 3.021 1.478 1.478 2.727 1.886 4.25 1.387 1.187-.388 3.17-.702 4.408-.698 2.013.007 2.25-.484 2.25-4.664 0-7.711-3.839-11.128-9.591-8.537M127 133c0 6 .4 10 1 10 .55 0 1-1.779 1-3.953v-3.954l2.945 1.69c2.817 1.617 3.065 1.6 5.75-.395 5.597-4.161 3.517-13.388-3.018-13.388-1.802 0-3.817.54-4.477 1.2-.933.933-1.2.933-1.2 0 0-.66-.45-1.2-1-1.2-.6 0-1 4-1 10m34-3c0 4 .429 7 1 7s1-3 1-7-.429-7-1-7-1 3-1 7m29-6.122c0 .482.658 1.423 1.461 2.09 2.582 2.143 2.794 4.892.594 7.689-1.146 1.457-1.832 2.9-1.525 3.207.307.307 1.61-.761 2.895-2.372l2.336-2.93 2.744 3.261c3.626 4.31 4.532 3.226 1.084-1.296L196.898 130l2.67-3.5c1.468-1.925 2.204-3.5 1.634-3.5-.569 0-1.975 1.237-3.123 2.75l-2.088 2.75-2.283-2.75c-2.305-2.776-3.708-3.485-3.708-1.872M221 130c0 4 .429 7 1 7 .55 0 1-2.24 1-4.977 0-4.208.387-5.231 2.505-6.618 3.756-2.461 5.495-.493 5.495 6.217 0 2.958.45 5.378 1 5.378 1.08 0 1.39-9.819.393-12.418-.726-1.893-6.417-2.158-8.193-.382-.933.933-1.2.933-1.2 0 0-.66-.45-1.2-1-1.2-.571 0-1 3-1 7m16-.059c0 3.818.45 7.219 1 7.559.633.391 1-2.156 1-6.941 0-4.373-.422-7.559-1-7.559-.571 0-1 2.98-1 6.941m-105.777-4.384c-4.051 2.837-1.841 10.443 3.034 10.443 4.624 0 6.476-7.673 2.52-10.443-1.222-.856-2.472-1.557-2.777-1.557-.305 0-1.555.701-2.777 1.557m47 0c-4.009 2.807-1.851 10.443 2.951 10.443 2.275 0 4.826-3.315 4.826-6.272 0-2.25-3.036-5.728-5-5.728-.305 0-1.555.701-2.777 1.557m29.527-.477c-3.566 2.077-2.038 3.92 3.25 3.92 5.365 0 6.059-.732 3.171-3.345-2.08-1.883-3.896-2.045-6.421-.575m37.251 6.419c-1.118 1.346-1.067 1.864.319 3.25 2.201 2.2 7.18.624 7.18-2.273 0-2.598-5.553-3.321-7.499-.977" fill="#1976D2" fill-rule="evenodd"/><path fill-opacity=".983" d="M18.763 79.565C15.316 81.435 13 85.837 13 90.516c0 3.601 1.444 7.425 3.249 8.604.522.341-.768.942-2.866 1.336-2.099.394-5.075 1.613-6.614 2.709-4.974 3.541-5.77 6.452-5.754 21.035.017 15.851.792 18.155 6.258 18.61l3.727.311v14.751c0 13.436.181 14.945 2.028 16.927 2.907 3.12 6.477 3.755 9.603 1.707 2.089-1.369 3.105-1.492 5.04-.61 3.737 1.703 6.195 1.329 8.874-1.351L39 172.091v-22.653c0-21.192.113-22.604 1.75-21.904 3.362 1.438 7.037 1.65 9.135.527 2.036-1.089 2.115-.923 2.115 4.449 0 4.654.425 6.006 2.56 8.141 1.753 1.753 3.307 2.416 4.933 2.106l2.374-.454-.184 15.423-.183 15.424 2.806 2.425c3.197 2.763 6.309 3.084 9.338.962 1.658-1.161 2.701-1.233 5.046-.348 4.624 1.746 8.195.331 9.986-3.957 1.253-2.998 1.425-6.178.907-16.831l-.637-13.134 2.467.472c1.734.331 3.228-.289 5.027-2.088 2.452-2.452 2.56-3.05 2.56-14.138 0-7.648-.474-12.712-1.397-14.92-1.518-3.633-7.241-8.742-10.846-9.682-2.473-.644-2.469-.57-.299-6.63 2.016-5.631.412-10.786-4.356-13.994-11.054-7.439-23.889 5.951-16.505 17.22 1.241 1.894.991 2.194-3.561 4.282-3.014 1.382-5.68 3.517-6.94 5.556-1.126 1.822-3.178 3.827-4.56 4.456-2.304 1.051-2.647.879-4.138-2.078-2.674-5.3-6.509-8.717-10.5-9.355l-3.687-.59 2.394-3.528c7.303-10.762-4.441-23.871-15.842-17.685m2.118 4.442c-.89.52-2.165 2.265-2.834 3.879-1.339 3.234-.419 6.038 3.089 9.403 3.83 3.675 1.052 7.711-5.307 7.711-3.249 0-4.688.659-7.429 3.4L5 111.8v14.033c0 13.133.128 14.073 1.991 14.664 1.095.348 2.378.393 2.851.101.473-.293 1.119-4.863 1.434-10.157.57-9.551 1.039-11.459 2.465-10.033.408.407.97 11.975 1.25 25.705.422 20.715.764 25.125 2.009 25.91 4.403 2.778 5.828-.039 6.128-12.108.479-19.339 2.569-19.781 3.5-.74.464 9.487.965 12.612 2.175 13.572 1.263 1.003 1.978.979 3.635-.122 1.99-1.322 2.065-2.269 2.155-27.339.11-30.559.589-32.501 6.005-24.318 3.056 4.619 5.162 5.554 8.787 3.902 2.24-1.02 2.615-1.819 2.615-5.566 0-4.015-.159-4.289-1.934-3.339-2.984 1.597-3.535 1.325-5.923-2.925-2.929-5.21-6.667-8.04-10.623-8.04-3.098 0-6.52-2.47-6.52-4.706 0-.577.705-1.634 1.566-2.349.861-.715 2.247-2.616 3.079-4.225 3.42-6.614-4.239-13.526-10.764-9.713m49.574 2.448c-3.133 3.132-3.118 6.604.045 10.363 4.03 4.789 2.86 9.178-2.45 9.186-3.596.005-8.67 3.36-10.534 6.965-1.226 2.371-1.518 5.582-1.299 14.294L56.5 138.5H59c2.055 0 2.545-.533 2.751-3 .995-11.925 1.508-15.458 2.183-15.041.425.263 1.094 11.63 1.486 25.259.564 19.594 1.018 25.092 2.166 26.265 1.098 1.122 1.873 1.219 3.183.399 1.406-.881 1.899-3.459 2.626-13.733C74.01 149.96 74.666 146 75.492 146c.831 0 1.482 4.095 2.105 13.242.787 11.54 1.134 13.286 2.701 13.583 4.111.778 4.418-.814 5.183-26.85.404-13.744 1.102-25.218 1.553-25.496.776-.48 1.678 5.214 2.22 14.021.217 3.534.537 4 2.746 4 2.493 0 2.501-.029 2.783-10.702.204-7.709-.128-11.689-1.189-14.228-1.642-3.929-6.75-7.561-10.644-7.566-5.379-.008-6.336-3.873-2.396-9.678 2.896-4.268 2.665-7.722-.707-10.576-2.896-2.45-6.509-2.179-9.392.705M145.32 127c.004 7.645.166 9.013.593 5.032.49-4.568 1.024-5.713 3.242-6.952 4.03-2.252 5.845-.221 5.845 6.542 0 3.356.428 5.378 1.139 5.378 1.198 0 .698-10.837-.597-12.932-1.024-1.658-6.14-1.258-7.67.599-1.213 1.473-1.441 1.095-1.965-3.25-.397-3.292-.591-1.446-.587 5.583m15.68-9c0 .55.477 1 1.059 1s.781-.45.441-1-.816-1-1.059-1-.441.45-.441 1m6 7.418c0 9.936.493 11.621 3.357 11.466 1.69-.092 1.773-.213.393-.573-1.511-.395-1.75-1.747-1.75-9.884 0-5.618-.404-9.427-1-9.427-.587 0-1 3.473-1 8.418m71.079-6.835c.048 1.165.285 1.402.604.605.289-.722.253-1.585-.079-1.917-.332-.332-.568.258-.525 1.312M127 133c0 6 .4 10 1 10 .55 0 1-1.816 1-4.035 0-3.68.17-3.944 1.934-3 3.2 1.712 6.833 1.206 8.509-1.188 4.292-6.127-1.43-13.926-8.017-10.925-1.495.681-2.426.73-2.426.127a.992.992 0 00-1-.979c-.6 0-1 4-1 10m34.136-3.25c-.075 3.988.202 7.25.614 7.251.412 0 .62-2.363.461-5.25-.484-8.803-.931-9.636-1.075-2.001m14.937-4.115c-2.617 3.326-2.644 6.794-.073 9.365 4.075 4.075 12 1.192 12-4.365 0-6.707-7.96-10.044-11.927-5m16.405.659l2.692 3.795-2.636 3.455c-3.145 4.123-2.458 4.597 1.021.706l2.459-2.75 2.28 2.75c1.255 1.512 2.68 2.75 3.168 2.75s-.025-1.012-1.139-2.25c-3.518-3.908-3.6-4.698-.858-8.293 3.257-4.271 2.354-4.584-1.163-.404l-2.568 3.052-2.974-3.302-2.974-3.303 2.692 3.794M206 125c-3.713 3.713-1.666 12 2.964 12 .718 0 .12-.933-1.329-2.073-1.449-1.139-2.635-2.468-2.635-2.952s2.813-1.014 6.25-1.177c5.62-.268 6.216-.5 5.91-2.298-.9-5.291-7.347-7.313-11.16-3.5m15.116 4.75c-.064 3.988.233 7.25.66 7.25.427 0 .602-1.83.389-4.067-.305-3.199.1-4.586 1.898-6.5 2.486-2.647 5.355-3.159 6.617-1.183.44.688 1.075 3.725 1.412 6.75l.614 5.5.147-6.05c.087-3.563-.346-6.543-1.053-7.25-1.64-1.64-4.917-1.507-7.503.305-1.947 1.363-2.191 1.34-2.607-.25-.252-.965-.51 1.508-.574 5.495m17.22.25c0 4.125.177 5.813.392 3.75.216-2.062.216-5.437 0-7.5-.215-2.062-.392-.375-.392 3.75m9.664-6.268c4.989.917 6.891 4.765 2.75 5.562l-2.25.434 2.32.136c3.15.185 2.598 4.123-.82 5.846-1.731.873-1.98 1.265-.809 1.275.93.008 1.983-.457 2.339-1.034.446-.721 1.036-.726 1.89-.018.972.807 1.143-.213.788-4.701-.546-6.907-1.488-8.274-5.58-8.096-2.736.119-2.815.194-.628.596m-117.25 1.348c-2.542 1.481-2.412 8.496.184 9.885 3.078 1.647 5.829 1.212 7.509-1.188 2.095-2.991 1.96-5.374-.443-7.777-2.192-2.192-4.552-2.491-7.25-.92M177 126c-2.403 2.403-2.538 4.786-.443 7.777 1.836 2.622 6.558 2.994 8.487.67 1.924-2.318 1.599-7.504-.568-9.089-2.61-1.908-5.144-1.69-7.476.642m29.557-.063c-2.532 2.798-1.13 4.063 4.502 4.063 4.091 0 4.941-.31 4.941-1.8 0-4.267-6.269-5.77-9.443-2.263m36.827 5.505c-.95 2.476.055 5.02 2.127 5.386 1.944.344 1.946.319.083-1.089-1.263-.954-1.716-2.164-1.343-3.589.63-2.411-.012-2.936-.867-.708M213 135.653c-1.378.726-1.827 1.317-1 1.317 1.724-.001 4.674-1.671 3.971-2.248-.259-.213-1.596.206-2.971.931" fill="#1976D2" fill-rule="evenodd"/></svg>